<?xml version="1.0" encoding="UTF-8" standalone="no"?>
<svg
   viewBox="0 -256 1792 1792"
   id="svg3025"
   version="1.1"
   inkscape:version="1.1.1 (3bf5ae0d25, 2021-09-20)"
   width="100%"
   height="100%"
   sodipodi:docname="arrow.svg"
   xmlns:inkscape="http://www.inkscape.org/namespaces/inkscape"
   xmlns:sodipodi="http://sodipodi.sourceforge.net/DTD/sodipodi-0.dtd"
   xmlns="http://www.w3.org/2000/svg"
   xmlns:svg="http://www.w3.org/2000/svg"
   xmlns:rdf="http://www.w3.org/1999/02/22-rdf-syntax-ns#"
   xmlns:cc="http://creativecommons.org/ns#"
   xmlns:dc="http://purl.org/dc/elements/1.1/">
  <metadata
     id="metadata3035">
    <rdf:RDF>
      <cc:Work
         rdf:about="">
        <dc:format>image/svg+xml</dc:format>
        <dc:type
           rdf:resource="http://purl.org/dc/dcmitype/StillImage" />
      </cc:Work>
    </rdf:RDF>
  </metadata>
  <defs
     id="defs3033" />
  <sodipodi:namedview
     pagecolor="#ffffff"
     bordercolor="#666666"
     borderopacity="1"
     objecttolerance="10"
     gridtolerance="10"
     guidetolerance="10"
     inkscape:pageopacity="0"
     inkscape:pageshadow="2"
     inkscape:window-width="1408"
     inkscape:window-height="991"
     id="namedview3031"
     showgrid="false"
     inkscape:zoom="0.13169643"
     inkscape:cx="-596.06779"
     inkscape:cy="895.99999"
     inkscape:window-x="26"
     inkscape:window-y="23"
     inkscape:window-maximized="0"
     inkscape:current-layer="svg3025"
     inkscape:pagecheckerboard="0" />
  <g
     transform="matrix(1,0,0,-1,296.13559,1285.4237)"
     id="g3027"
     style="fill:#ffffff">
    <path
       d="m 1075,672 q 0,-13 -10,-23 L 599,183 q -10,-10 -23,-10 -13,0 -23,10 L 87,649 q -10,10 -10,23 0,13 10,23 l 50,50 q 10,10 23,10 13,0 23,-10 L 576,352 969,745 q 10,10 23,10 13,0 23,-10 l 50,-50 q 10,-10 10,-23 z m 0,384 q 0,-13 -10,-23 L 599,567 q -10,-10 -23,-10 -13,0 -23,10 L 87,1033 q -10,10 -10,23 0,13 10,23 l 50,50 q 10,10 23,10 13,0 23,-10 l 393,-393 393,393 q 10,10 23,10 13,0 23,-10 l 50,-50 q 10,-10 10,-23 z"
       id="path3029"
       inkscape:connector-curvature="0"
       style="fill:#ffffff" />
  </g>
</svg>
